<svg width="88" height="26" viewBox="0 0 88 26" fill="none" xmlns="http://www.w3.org/2000/svg">
<path d="M14 22H10L13 8L8 11L9 8L18 2L14 22Z" fill="white" stroke="white"/>
<path d="M24.1477 8.58807L24.6591 5.54545H38.9943L38.483 8.58807H33.1392L30.7528 23H27.1051L29.4915 8.58807H24.1477ZM37.0298 23L39.2116 9.90909H42.7315L42.348 12.1932H42.4844C42.8594 11.3807 43.3622 10.767 43.9929 10.3523C44.6293 9.93182 45.3139 9.72159 46.0469 9.72159C46.2287 9.72159 46.419 9.73295 46.6179 9.75568C46.8224 9.77273 47.0043 9.80114 47.1634 9.84091L46.6179 13.071C46.4588 13.0142 46.2315 12.9687 45.9361 12.9347C45.6463 12.8949 45.3707 12.875 45.1094 12.875C44.581 12.875 44.0895 12.9915 43.6349 13.2244C43.1804 13.4517 42.7969 13.7699 42.4844 14.179C42.1776 14.5881 41.9759 15.0597 41.8793 15.5938L40.6605 23H37.0298ZM52.1726 23.2557C50.8317 23.2557 49.7209 22.983 48.8402 22.4375C47.9595 21.8864 47.3402 21.108 46.9822 20.1023C46.63 19.0909 46.5703 17.8949 46.8033 16.5142C47.0305 15.1676 47.4879 13.9858 48.1754 12.9688C48.8686 11.9517 49.7379 11.1591 50.7834 10.5909C51.8288 10.0227 52.9936 9.73864 54.2777 9.73864C55.1413 9.73864 55.9226 9.87784 56.6214 10.1562C57.326 10.429 57.9112 10.8437 58.3771 11.4006C58.843 11.9517 59.1612 12.642 59.3317 13.4716C59.5078 14.3011 59.505 15.2727 59.3232 16.3864L59.1612 17.3835H48.1158L48.4652 15.1335H56.1016C56.1868 14.6108 56.1527 14.1477 55.9993 13.7443C55.8459 13.3409 55.5902 13.0256 55.2322 12.7983C54.8743 12.5653 54.4339 12.4489 53.9112 12.4489C53.3771 12.4489 52.8771 12.5795 52.4112 12.8409C51.9453 13.1023 51.5533 13.446 51.2351 13.8722C50.9226 14.2926 50.7209 14.75 50.63 15.2443L50.2294 17.4773C50.1158 18.1648 50.1385 18.7358 50.2976 19.1903C50.4624 19.6449 50.7464 19.9858 51.1499 20.2131C51.5533 20.4347 52.0646 20.5455 52.6839 20.5455C53.0874 20.5455 53.4652 20.4886 53.8175 20.375C54.1754 20.2614 54.4936 20.0938 54.772 19.8722C55.0504 19.6449 55.2777 19.3636 55.4538 19.0284L58.7692 19.25C58.4624 20.0568 57.9964 20.7614 57.3714 21.3636C56.7464 21.9602 55.9936 22.4261 55.1129 22.7614C54.2379 23.0909 53.2578 23.2557 52.1726 23.2557ZM74.6428 9.90909L67.8842 23H63.7933L61.3984 9.90909H65.0973L66.2564 19.2756H66.3928L70.6626 9.90909H74.6428ZM77.6662 23.2472C76.8366 23.2472 76.1179 23.1023 75.5099 22.8125C74.9077 22.517 74.4645 22.0795 74.1804 21.5C73.8963 20.9205 73.8253 20.2017 73.9673 19.3438C74.0923 18.6165 74.3281 18.0085 74.6747 17.5199C75.027 17.0256 75.456 16.6278 75.9616 16.3267C76.4673 16.0256 77.027 15.7955 77.6406 15.6364C78.2599 15.4773 78.8991 15.3693 79.5582 15.3125C80.3196 15.233 80.9389 15.1562 81.4162 15.0824C81.8991 15.0085 82.2599 14.9034 82.4986 14.767C82.7372 14.625 82.8821 14.4148 82.9332 14.1364V14.0852C83.0185 13.5511 82.919 13.1364 82.6349 12.8409C82.3565 12.5398 81.9105 12.3892 81.2969 12.3892C80.6491 12.3892 80.098 12.5312 79.6435 12.8153C79.1946 13.0994 78.8736 13.4602 78.6804 13.8977L75.3736 13.625C75.669 12.8295 76.1151 12.142 76.7116 11.5625C77.3139 10.9773 78.0384 10.5284 78.8849 10.2159C79.7315 9.89773 80.6804 9.73864 81.7315 9.73864C82.4588 9.73864 83.1378 9.82386 83.7685 9.99432C84.4048 10.1648 84.9531 10.429 85.4134 10.7869C85.8793 11.1449 86.2145 11.6051 86.419 12.1676C86.6293 12.7244 86.6719 13.392 86.5469 14.1705L85.0724 23H81.6293L81.9361 21.1847H81.8338C81.5554 21.5938 81.2145 21.9545 80.8111 22.267C80.4077 22.5739 79.9446 22.8153 79.4219 22.9915C78.8991 23.1619 78.3139 23.2472 77.6662 23.2472ZM79.1236 20.7415C79.652 20.7415 80.1378 20.6364 80.581 20.4261C81.0298 20.2102 81.3991 19.9205 81.6889 19.5568C81.9844 19.1932 82.1719 18.7812 82.2514 18.321L82.473 16.9318C82.3594 17.0057 82.1946 17.071 81.9787 17.1278C81.7685 17.1847 81.5384 17.2386 81.2884 17.2898C81.044 17.3352 80.7969 17.3778 80.5469 17.4176C80.2969 17.4517 80.0724 17.4858 79.8736 17.5199C79.4361 17.5824 79.044 17.6818 78.6974 17.8182C78.3509 17.9545 78.0696 18.1392 77.8537 18.3722C77.6378 18.5994 77.5043 18.8835 77.4531 19.2244C77.3736 19.7188 77.4901 20.0966 77.8026 20.358C78.1207 20.6136 78.5611 20.7415 79.1236 20.7415Z" fill="white"/>
<path d="M8 22H1L2 16.5L10 12L8 22Z" fill="#528FF0" stroke="#528FF0"/>
</svg>
